<?xml version="1.0" encoding="UTF-8" standalone="no"?>
<!-- Created with Inkscape (http://www.inkscape.org/) -->

<svg
   xmlns:dc="http://purl.org/dc/elements/1.1/"
   xmlns:cc="http://creativecommons.org/ns#"
   xmlns:rdf="http://www.w3.org/1999/02/22-rdf-syntax-ns#"
   xmlns:svg="http://www.w3.org/2000/svg"
   xmlns="http://www.w3.org/2000/svg"
   xmlns:sodipodi="http://sodipodi.sourceforge.net/DTD/sodipodi-0.dtd"
   xmlns:inkscape="http://www.inkscape.org/namespaces/inkscape"
   width="535.44983"
   height="364.71014"
   id="svg2"
   version="1.1"
   inkscape:version="0.48.3.1 r9886"
   sodipodi:docname="pinna.eps">
  <defs
     id="defs4">
    <marker
       inkscape:stockid="Arrow1Lend"
       orient="auto"
       refY="0"
       refX="0"
       id="Arrow1Lend"
       style="overflow:visible">
      <path
         id="path3864"
         d="M 0,0 5,-5 -12.5,0 5,5 0,0 z"
         style="fill-rule:evenodd;stroke:#000000;stroke-width:1pt"
         transform="matrix(-0.8,0,0,-0.8,-10,0)"
         inkscape:connector-curvature="0" />
    </marker>
    <filter
       inkscape:collect="always"
       id="filter3061"
       color-interpolation-filters="sRGB">
      <feGaussianBlur
         inkscape:collect="always"
         stdDeviation="0.38229793"
         id="feGaussianBlur3063" />
    </filter>
    <filter
       color-interpolation-filters="sRGB"
       inkscape:collect="always"
       id="filter3061-0">
      <feGaussianBlur
         inkscape:collect="always"
         stdDeviation="0.38229793"
         id="feGaussianBlur3063-0" />
    </filter>
    <marker
       inkscape:stockid="Arrow1Lend"
       orient="auto"
       refY="0"
       refX="0"
       id="Arrow1Lend-8"
       style="overflow:visible">
      <path
         inkscape:connector-curvature="0"
         id="path3864-4"
         d="M 0,0 5,-5 -12.5,0 5,5 0,0 z"
         style="fill-rule:evenodd;stroke:#000000;stroke-width:1pt"
         transform="matrix(-0.8,0,0,-0.8,-10,0)" />
    </marker>
    <marker
       inkscape:stockid="Arrow1Lend"
       orient="auto"
       refY="0"
       refX="0"
       id="marker5789"
       style="overflow:visible">
      <path
         inkscape:connector-curvature="0"
         id="path5791"
         d="M 0,0 5,-5 -12.5,0 5,5 0,0 z"
         style="fill-rule:evenodd;stroke:#000000;stroke-width:1pt"
         transform="matrix(-0.8,0,0,-0.8,-10,0)" />
    </marker>
  </defs>
  <sodipodi:namedview
     id="base"
     pagecolor="#ffffff"
     bordercolor="#666666"
     borderopacity="1.0"
     inkscape:pageopacity="0.0"
     inkscape:pageshadow="2"
     inkscape:zoom="0.98994949"
     inkscape:cx="256.55872"
     inkscape:cy="156.19996"
     inkscape:document-units="px"
     inkscape:current-layer="layer1"
     showgrid="false"
     inkscape:window-width="1356"
     inkscape:window-height="700"
     inkscape:window-x="0"
     inkscape:window-y="41"
     inkscape:window-maximized="1"
     fit-margin-top="10"
     fit-margin-left="10"
     fit-margin-right="10"
     fit-margin-bottom="10">
    <inkscape:grid
       type="xygrid"
       id="grid5819"
       empspacing="5"
       visible="true"
       enabled="true"
       snapvisiblegridlinesonly="true"
       originx="-105.52944px"
       originy="-459.43359px" />
  </sodipodi:namedview>
  <metadata
     id="metadata7">
    <rdf:RDF>
      <cc:Work
         rdf:about="">
        <dc:format>image/svg+xml</dc:format>
        <dc:type
           rdf:resource="http://purl.org/dc/dcmitype/StillImage" />
        <dc:title></dc:title>
      </cc:Work>
    </rdf:RDF>
  </metadata>
  <g
     inkscape:label="Layer 1"
     inkscape:groupmode="layer"
     id="layer1"
     transform="translate(-105.52944,-228.21846)">
    <path
       style="opacity:0.7;fill:#666666;filter:url(#filter3061)"
       d="m 477.26647,578.37093 c -21.74705,-10.13741 -19.12222,-34.87945 -23.21354,-55.98797 -4.58953,-17.40036 -14.57182,-33.80846 -12.50395,-52.48793 -0.71677,-6.10162 4.86829,-28.13671 5.0083,-11.49822 0.10587,14.27819 -0.94047,29.07709 5.85142,42.22203 10.43866,21.23715 0.83403,46.46651 16.54956,65.18505 12.85296,13.31632 33.82422,13.70166 50.62254,9.40083 16.90561,-8.7577 29.30173,-24.24392 46.31181,-33.0533 21.25406,-11.02312 37.04109,-30.16208 47.72801,-51.4815 12.09962,-21.27922 17.18271,-45.64843 22.43875,-69.30584 2.44278,-26.84984 1.87885,-54.04653 -0.53485,-80.89081 -3.34415,-26.97132 -14.59155,-52.64526 -29.30237,-75.27567 -18.13566,-22.42659 -42.26387,-41.63667 -72.51759,-41.76391 -33.90468,-3.40073 -66.74299,16.53703 -84.8594,44.32213 -6.014,11.33595 -12.42112,26.68024 -15.22191,36.93401 3.72327,5.94746 -3.0434,7.35172 -4.08084,2.71018 -12.9259,5.53977 5.27189,-13.42417 4.88892,-20.5208 9.54557,-32.02443 37.04235,-57.59207 69.40145,-65.39225 16.53482,-1.42288 33.4321,-1.69648 49.93832,0.0869 24.48945,5.95358 42.76914,23.20322 57.96076,42.40856 20.05831,31.32662 31.61275,68.3616 30.94176,105.69773 1.64178,31.49095 -1.50219,63.23634 -11.52471,93.23873 -7.52918,27.47067 -21.88468,54.69219 -44.20879,72.64774 -15.30989,10.1719 -32.1463,18.30457 -45.14745,31.64951 -10.13476,9.83619 -23.4446,15.60824 -37.69916,13.74616 -8.89131,-0.50918 -18.52803,1.53766 -26.82704,-2.59132 z m 15.49237,1.37421 c -3.18603,-0.99688 -2.80085,1.68383 0,0 z m 39.39839,-8.29148 c 2.845,-4.04945 -5.68444,5.18101 0,0 z m 17.87244,-15.18537 c 5.94048,-7.34299 -7.75529,7.05613 0,0 z m 6.12756,-4.75959 c 2.845,-4.04944 -5.68444,5.18101 0,0 z m 35.37244,-22.89137 c 11.89653,-11.17356 -8.58127,5.97493 -3.62503,3.20139 l 1.67336,-1.44133 z m 7.61741,-9.98041 c 3.06358,-4.15759 -6.0763,5.26252 0,0 z m 41.5797,-126.45861 c -1.32124,1.42019 0.5666,6.62386 0,0 z m 0.0103,-23.11613 c -1.40276,1.04721 0.73709,9.38601 0,0 z M 599.01952,252.4844 c -6.34052,-6.11744 -7.84474,-5.7008 0,0 z m -135.48985,-5.81628 c 11.31349,-10.39452 -2.64516,0.55506 -6.43739,5.43954 2.31678,-1.60319 4.33531,-3.57797 6.43739,-5.43954 z m 37.16667,322.14129 c 4.42358,-5.84056 21.64039,-3.59861 28.24342,-12.40586 2.52854,10.71325 -20.1375,14.47318 -28.24342,12.40586 z m 42.34698,-49.93791 c 2.77935,-15.32589 6.40497,4.59823 0,0 z m 5.65599,-1.81318 c -1.54057,-7.0311 6.4718,-15.2015 3.89136,-2.98202 0.0871,1.24169 -2.36003,5.53029 -3.89136,2.98202 z m 5.8567,-7.70601 c 7.41797,-15.80277 1.51209,14.02641 0,0 z m -75.613,-2.71977 c -14.3952,-18.71732 -19.1921,-43.89058 -13.31952,-66.70396 3.76827,-16.25999 -1.84667,-28.15162 -5.35046,-44.00193 -6.27373,-12.14555 -18.30337,-28.89684 -16.86112,-42.80644 7.245,13.17562 15.80614,39.25197 26.70073,50.21851 15.67916,18.18117 37.52873,16.74392 60.15776,23.6749 7.09145,2.10808 -8.9144,10.52398 -7.95821,1.24514 -4.01093,12.99567 -4.11351,-3.45303 -7.00973,-0.55471 0.3813,6.44923 -9.57704,22.28294 -5.94358,6.75143 3.78255,-7.63587 -0.73629,-13.71529 -1.94633,-2.88006 -1.61522,10.0444 -8.26812,8.96972 -3.92695,-1.32301 1.66193,-13.79312 -0.89994,-3.42623 -4.73356,2.09871 -3.71648,-2.09109 0.95813,-16.09869 -2.78458,-3.54965 -3.1175,9.99708 -10.09242,9.55861 -15.19619,20.64943 -3.85105,3.56764 -17.38164,18.03174 -6.23765,8.03665 12.5945,-11.51855 1.57136,6.1556 -3.154,9.48172 5.41628,-2.35638 21.57734,-21.05589 13.39059,-5.77481 -4.36253,4.71682 -17.15973,16.61864 -4.30361,6.42471 4.11674,-5.40105 18.95318,-16.01724 8.58885,-2.65487 -4.04872,3.00498 -15.51824,16.47763 -3.914,7.60867 4.93528,-3.5933 21.34917,-25.54867 13.67142,-8.20598 -4.45081,4.81038 -13.01131,15.79774 -2.61024,5.47269 8.21988,-8.48583 12.67045,-22.429 21.917,-22.18312 2.61912,-6.99595 6.90138,-6.88967 6.49767,-2.65858 4.35811,-4.54651 10.61537,-4.15832 12.62344,-3.2743 4.52726,-9.9826 5.80417,-0.60964 6.38348,-1.46266 2.82872,-5.98566 5.35023,1.53763 9.0429,-4.81765 8.6404,-0.30508 21.22371,-11.76355 24.08327,-22.99677 4.26054,-13.21229 -1.5751,-25.6518 -6.16684,-33.49546 -4.50259,2.90099 -2.1898,-18.33174 -5.31872,-3.15177 -5.489,1.42101 -2.18892,-9.9188 -8.84215,6.71775 -2.15802,-3.3232 -1.86531,-16.84102 -4.18033,-4.05591 -5.63187,5.51751 -2.57421,-15.37667 -3.94772,-3.87674 -2.15265,14.13637 -5.18524,-13.85828 -5.16528,-0.0285 -0.39691,17.82025 -6.94201,-16.33625 -6.59558,-5.4366 1.02735,8.55503 -0.76021,3.70086 -1.42205,4.65384 3.6e-4,10.01869 -2.1898,-8.49171 -1.95041,0.91694 -2.73499,2.28516 -4.51677,9.93052 -8.97289,9.99749 3.67907,-6.24329 -7.49839,-29.48449 -1.82295,-11.42554 3.15856,4.56162 -2.05229,24.61025 -5.93775,18.65886 4.29936,-4.59566 1.19828,-31.06222 0.59788,-13.49407 1.48252,8.99219 -8.99013,15.99468 -3.89474,3.15458 4.63756,-18.33897 -9.04725,21.43917 -7.0218,4.0721 3.68461,-6.21581 3.09506,-23.96213 1.4595,-8.47192 0.31934,8.92477 -13.27783,16.71282 -5.00527,3.45469 3.75523,-14.40469 -0.7288,-2.98303 -3.86609,4.05439 -3.10791,11.36273 15.485,9.73187 21.33247,11.00087 -12.65783,11.20813 -29.17796,-3.94178 -36.01812,-15.05839 -14.1101,-20.88638 -20.90403,-46.42456 -17.92214,-71.57042 0.59256,-23.38338 20.73808,-58.98937 45.263,-56.53101 20.46912,0.71361 43.26502,-4.52463 61.25639,8.07771 17.04084,10.08038 18.91865,31.54593 24.52966,48.59693 7.96488,31.29329 18.98893,61.30452 16.56769,94.19478 -1.9152,27.94582 -10.24937,56.98395 -26.83833,79.66436 -2.60831,5.87916 -16.38034,14.09772 -7.17762,2.37929 13.18452,-16.31766 21.97987,-37.1686 25.45939,-57.69354 2.00169,-5.51246 1.69786,-5.44589 -0.54674,-8.66925 6.39007,-1.13591 -2.5731,-3.72208 4.09336,-6.49611 -6.00431,-1.87767 3.47817,-5.14777 -1.31534,-8.1649 4.66896,-3.56909 -3.01764,-4.96438 3.49112,-9.8974 -8.19882,-0.23093 3.56376,-5.65622 -4.85247,-6.1881 10.1442,-5.20324 -6.50461,-4.94529 2.43309,-9.222 2.91489,-5.43211 -12.98236,1.28703 -3.43309,-5.62174 10.25699,-5.9523 -10.83557,-1.80244 0.3633,-7.63912 3.53592,-5.27871 -9.49817,-3.37746 -0.41327,-9.66138 -9.20085,0.48848 0.49673,-5.58675 -4.76278,-8.5671 0.72333,-14.98704 -5.98586,-29.49279 -9.20921,-44.48954 -5.32604,-3.75246 -7.11659,-13.27829 -6.0395,-13.17697 -12.01225,8.00606 6.70154,-13.87133 -5.06956,-3.45296 -4.84042,-0.91821 7.55701,-14.97678 -1.87838,-6.18771 -7.64809,2.65495 6.19907,-16.49305 -4.48319,-4.55579 -7.77597,3.76816 4.63551,-17.5878 -4.57032,-4.48588 -6.82457,3.26674 2.73619,-14.81518 -4.36506,-3.43881 -4.6134,2.02312 -0.64002,-12.93319 -4.95766,-2.47867 -4.9169,-0.77574 -0.91783,-8.88236 -6.21763,-1.49582 -1.02343,-8.65933 -4.97894,2.83291 -5.72496,-6.5831 -3.01501,6.12541 -9.36807,-1.9384 -12.98922,1.48212 -17.17013,-3.20759 -38.32707,8.38389 -51.17631,22.60588 9.49007,4.91815 24.54145,7.14313 34.15617,15.53783 13.80552,8.74069 22.7888,23.5359 26.19541,39.26001 -2.32517,-3.08996 -14.68224,14.03839 -8.18727,1.00743 6.55103,-12.2764 0.0662,-1.82759 -4.66042,-2.74047 3.28089,-4.79864 5.72867,-17.77676 0.68731,-6.18298 -5.17058,9.62169 -10.50534,4.89289 -3.09271,-2.41584 3.4864,-4.74591 1.81414,-15.96357 -0.59734,-4.12389 -1.64045,8.5835 -15.21057,14.03976 -5.87472,2.2845 4.68423,-5.8317 4.05019,-21.99285 -0.73941,-6.55374 -0.36413,6.62972 -17.62785,21.59159 -8.91283,7.61213 4.35013,-3.73436 11.38666,-23.62973 4.85906,-19.74268 -1.71215,8.91529 -8.63891,25.20199 -17.16406,24.21021 5.56226,-7.47774 15.48257,-25.97033 12.38315,-27.2355 -2.71328,9.54664 -11.00616,28.06751 -20.18126,26.20437 4.41814,-1.14652 18.64145,-26.86655 7.39333,-10.17878 -3.04824,7.74462 -16.42091,12.74262 -6.14302,1.94141 4.63843,-6.19239 12.48801,-19.55621 9.85228,-24.24948 -3.645,9.63984 -9.49465,27.92275 -19.31775,28.11317 3.43056,-5.93782 9.79448,-13.57519 0.47036,-4.71025 -4.81632,-1.47265 13.05177,-24.61604 3.00638,-11.68089 -0.38335,8.50921 -19.61287,17.80001 -7.86772,5.11913 4.93007,-4.86486 -11.42534,7.21554 -3.52812,-2.49548 5.03977,-3.07047 12.39356,-29.53754 5.54996,-12.69778 -1.64109,8.08411 -11.49662,12.89252 -10.7737,21.27824 -0.31466,10.35281 -0.68137,23.66671 10.86081,28.22815 18.60198,10.78217 40.33108,11.65751 60.79346,16.18697 15.42036,2.88384 28.56951,0.89963 34.34934,15.53477 6.08945,12.21299 6.83457,27.58425 2.13343,40.31888 -9.1993,19.2833 -30.59554,27.1421 -50.08489,31.47186 -16.63065,4.28597 -29.2603,19.89696 -30.48734,36.93442 -4.36773,-2.14888 -1.18001,-13.26069 -10.36202,-6.14763 -8.98994,4.04155 -23.99141,-9.63164 -14.96235,6.64027 1.61216,7.67069 13.11613,17.73039 10.75668,22.39023 -2.21316,-0.48207 -3.7064,-2.2376 -5.09296,-3.85306 z m 6.33666,-27.90586 c -13.45693,-1.18481 2.73413,3.05698 0,0 z m -10.87978,-2.01158 c -5.70231,-4.08357 -10.3515,-20.8312 -7.59406,-4.32192 0.008,0.44353 10.51219,7.34629 7.59406,4.32192 z m 24.04568,-3.07464 c -0.32614,-3.03462 -3.98532,4.65285 0,0 z m 14.78453,-18.45481 c 3.94133,-6.07468 -11.41669,10.39257 -2.21226,1.82805 z m -33.29253,-11.3344 c 4.18436,-4.79331 8.65005,-19.01302 2.12594,-6.06751 -1.87335,6.11216 -20.10711,22.4193 -6.85988,11.27726 1.66262,-1.65546 3.30377,-3.34486 4.73394,-5.20975 z m -3.4079,7.70601 c 5.11764,-6.51459 -7.47648,6.63289 0,0 z m 45.02646,-1.63809 c -3.23356,0.0388 -2.93763,3.42959 0,0 z m 7.11732,-2.7082 c -6.97265,0.26016 1.31961,2.05701 0,0 z m 5.08539,-0.73439 c -3.18663,-0.99678 -2.80007,1.68405 0,0 z m -54.62276,-11.72475 c 5.03328,-5.35148 5.73722,-30.40128 2.57442,-10.50053 -0.19875,8.20747 -8.21955,16.0246 -10.66283,21.28079 3.24647,-3.12315 5.87625,-6.87211 8.08841,-10.78026 z m 60.39359,10.4593 c 4.63588,-2.90763 -9.69248,2.94588 0,0 z m -65.5,-7.94905 c -5.43341,0.79511 -8.49726,6.59833 -0.88125,0.97348 z m 0.99443,-11.98091 c 8.32916,-8.34984 -8.36572,-23.73831 -5.47842,-7.46854 -0.21957,6.17235 -1.13438,25.36473 4.56205,9.76926 z m 16.66785,3.38471 c -1.73562,-0.35389 1.04433,6.09482 0,0 z m -4.97917,-0.84992 c -1.78833,-0.6629 0.66219,3.88719 0,0 z m 5.97917,-3.68302 c 0.2847,-3.77743 1.04432,6.09482 0,0 z m -5,-0.90659 c -1.73561,-0.3539 1.04432,6.09481 0,0 z m 1.0553,-7.69354 c -1.40276,1.0472 0.73709,9.38599 0,0 z m -8.03447,0.49749 c -1.78833,-0.6629 0.66219,3.88719 0,0 z m -8.68311,5.12786 c -5.69054,-6.12409 -2.17205,0.36072 0,0 z m 3,-2.83077 c -4.87829,-5.22834 -2.86495,3.83989 0,0 z m 6.5,-0.4533 c -4.13729,-3.23403 -1.50893,3.29708 0,0 z M 468.719,413.5678 c -1.03189,-0.93343 0.82934,0.24545 0,3.17306 z m 111.99378,-12.04293 c -1.78833,-0.66287 0.66219,3.88718 0,0 z M 474.83992,411.874 c -7.91849,-3.13455 0.97436,5.2491 0,0 z m 137.86271,-16.92983 c -1.78833,-0.6629 0.66219,3.88719 0,0 z m -143.70359,11.59756 c -3.37475,0.54502 -1.06755,5.92609 0,0 z m 143.70359,-17.0371 c -1.78833,-0.66286 0.6622,3.88719 0,0 z m -47.97997,-19.29649 c -1.50096,-0.14537 0.82092,7.246 0,0 z m -38.00988,9.41923 c -1.78833,-0.6629 0.66219,3.88719 0,0 z m -10.97585,-4.57904 c -1.32124,1.42022 0.5666,6.62384 0,0 z m 31,-1.81318 c -1.32124,1.42022 0.5666,6.62384 0,0 z m -18.68945,-3.44518 c -2.29736,-6.80547 1.32798,14.63231 0.6423,2.25207 z m -28.30156,-5.17798 c -1.39705,2.13016 0.77744,9.8438 0,0 z m -2.01052,-1.35989 c -1.09762,-1.76542 0.32408,9.67039 0,0 z m -19.58164,-0.0151 c -3.18233,-1.59361 2.75723,3.95535 0,0 z m 12.56524,-3.15792 c -1.03196,-0.93361 0.82956,0.24604 0,3.17306 z m 24.22734,1.2535 c -8.69359,-3.36177 -10.18016,1.64374 0,0 z m -36.41667,-3.29333 c 5.62036,-7.92054 24.17865,4.04384 25.3242,0.98896 -11.70648,-5.08909 -26.11496,-7.57052 -33.86948,-18.66744 1.72772,4.74046 4.01407,23.95405 8.54528,17.67848 z m 13.62756,-33.31714 c 3.06358,-4.15759 -6.0763,5.26252 0,0 z m -22.88281,-12.4656 c -0.88061,-8.54015 -2.16978,8.26077 0,0 z m 24.56212,-3.65035 c -2.34307,0.58962 -1.74069,4.94717 0,0 z m 3.10133,-6.95146 c 3.02752,-7.32173 1.59007,-11.19359 -0.65186,-1.31435 -2.69764,7.22593 -2.96656,10.59933 0.65186,1.31435 z m -25.36925,1.04361 c 3.74299,-5.90022 -6.8742,5.92258 0,0 z m 37.39076,-3.5118 c -1.07424,-5.01109 -1.9925,11.34476 0,0 z m -16.2466,-2.9653 c -1.78833,-0.66288 0.66219,3.88719 0,0 z m 1.00988,-5.02565 c -1.50096,-0.14538 0.82092,7.246 0,0 z m -15.21231,-5.08311 c 2.2813,-8.14732 -7.27849,4.90452 0,0 z m 83.51932,-28.01493 c -4.19875,-3.27907 -2.47501,1.62986 0,0 z m -48.75,-3.87047 c -6.19841,-0.92149 -0.12535,1.58265 0,0 z m 5.47917,0.0527 c -3.18655,-0.99682 -2.80015,1.68409 0,0 z m 41.28448,251.51274 c 2.24026,-14.50971 7.6905,3.53172 0,0 z m 5.01815,-5.50601 c 6.10293,-13.31396 6.80817,5.38637 0,0 z m 7.60437,-5.67138 c 0.24188,-4.23478 3.6458,3.24987 0,0 z m 14.86383,-241.54231 c 1.6106,-0.85224 -2.71355,-3.325 2.5,-0.51178 0.48966,1.92946 -6.83748,1.49399 -2.5,0.51178 z m -4.5,-3.58784 c 5.60764,-6.70802 5.4026,5.69557 0,0 z m -3.47301,-3.68376 c -9.3474,-0.84061 -9.32933,-7.37653 -17.13318,-9.43098 -9.65888,-7.73552 8.92885,-3.15977 8.3605,0.54962 2.49302,1.89755 13.28396,3.25873 12.71167,9.29315 -1.21726,0.58019 -2.96301,0.73613 -3.93899,-0.41179 z m -23.88862,-14.9983 c 0.27458,-5.03007 3.04169,4.71796 0,0 z m -5.63837,-2.26648 c 3.60226,-3.65286 3.90721,3.54856 0,0 z"
       id="path2996"
       inkscape:connector-curvature="0"
       transform="matrix(0.73634086,0,0,0.65180102,-93.226846,163.69037)"
       sodipodi:nodetypes="cccccccccccccccccccccccccccccccccccccccccccccccccccccccccccccccccccccccccccccccccccccccccccccccccccccccccccccccccccccccccccccccccccccccccccccccccccccccccccccccccccccccccccccccccccccccccccccccccccccccccccccccccccccccccccccccccccccccccccccccccccccccccccccccccccccccccccccccccccccccccccccccccccccccccccccccccccccc" />
    <path
       style="fill:none;stroke:#000000;stroke-width:2;stroke-linecap:butt;stroke-linejoin:miter;stroke-miterlimit:4;stroke-opacity:1;stroke-dasharray:none;marker-end:url(#Arrow1Lend)"
       d="m 117.27325,406.62972 211.24392,3.71908 -69.91876,55.04243"
       id="path3087"
       inkscape:connector-curvature="0"
       sodipodi:nodetypes="ccc" />
    <path
       style="fill:none;stroke:#000000;stroke-width:2;stroke-linecap:butt;stroke-linejoin:miter;stroke-miterlimit:4;stroke-opacity:1;stroke-dasharray:none;marker-end:url(#Arrow1Lend)"
       d="m 116.52944,467.62268 138.34988,0"
       id="path4301"
       inkscape:connector-curvature="0" />
    <path
       style="opacity:0.7;fill:#666666;filter:url(#filter3061-0)"
       d="m 477.26647,578.37093 c -21.74705,-10.13741 -19.12222,-34.87945 -23.21354,-55.98797 -4.58953,-17.40036 -14.57182,-33.80846 -12.50395,-52.48793 -0.71677,-6.10162 4.86829,-28.13671 5.0083,-11.49822 0.10587,14.27819 -0.94047,29.07709 5.85142,42.22203 10.43866,21.23715 0.83403,46.46651 16.54956,65.18505 12.85296,13.31632 33.82422,13.70166 50.62254,9.40083 16.90561,-8.7577 29.30173,-24.24392 46.31181,-33.0533 21.25406,-11.02312 37.04109,-30.16208 47.72801,-51.4815 12.09962,-21.27922 17.18271,-45.64843 22.43875,-69.30584 2.44278,-26.84984 1.87885,-54.04653 -0.53485,-80.89081 -3.34415,-26.97132 -14.59155,-52.64526 -29.30237,-75.27567 -18.13566,-22.42659 -42.26387,-41.63667 -72.51759,-41.76391 -33.90468,-3.40073 -66.74299,16.53703 -84.8594,44.32213 -6.014,11.33595 -12.42112,26.68024 -15.22191,36.93401 3.72327,5.94746 -3.0434,7.35172 -4.08084,2.71018 -12.9259,5.53977 5.27189,-13.42417 4.88892,-20.5208 9.54557,-32.02443 37.04235,-57.59207 69.40145,-65.39225 16.53482,-1.42288 33.4321,-1.69648 49.93832,0.0869 24.48945,5.95358 42.76914,23.20322 57.96076,42.40856 20.05831,31.32662 31.61275,68.3616 30.94176,105.69773 1.64178,31.49095 -1.50219,63.23634 -11.52471,93.23873 -7.52918,27.47067 -21.88468,54.69219 -44.20879,72.64774 -15.30989,10.1719 -32.1463,18.30457 -45.14745,31.64951 -10.13476,9.83619 -23.4446,15.60824 -37.69916,13.74616 -8.89131,-0.50918 -18.52803,1.53766 -26.82704,-2.59132 z m 15.49237,1.37421 c -3.18603,-0.99688 -2.80085,1.68383 0,0 z m 39.39839,-8.29148 c 2.845,-4.04945 -5.68444,5.18101 0,0 z m 17.87244,-15.18537 c 5.94048,-7.34299 -7.75529,7.05613 0,0 z m 6.12756,-4.75959 c 2.845,-4.04944 -5.68444,5.18101 0,0 z m 35.37244,-22.89137 c 11.89653,-11.17356 -8.58127,5.97493 -3.62503,3.20139 l 1.67336,-1.44133 z m 7.61741,-9.98041 c 3.06358,-4.15759 -6.0763,5.26252 0,0 z m 41.5797,-126.45861 c -1.32124,1.42019 0.5666,6.62386 0,0 z m 0.0103,-23.11613 c -1.40276,1.04721 0.73709,9.38601 0,0 z M 599.01952,252.4844 c -6.34052,-6.11744 -7.84474,-5.7008 0,0 z m -135.48985,-5.81628 c 11.31349,-10.39452 -2.64516,0.55506 -6.43739,5.43954 2.31678,-1.60319 4.33531,-3.57797 6.43739,-5.43954 z m 37.16667,322.14129 c 4.42358,-5.84056 21.64039,-3.59861 28.24342,-12.40586 2.52854,10.71325 -20.1375,14.47318 -28.24342,12.40586 z m 42.34698,-49.93791 c 2.77935,-15.32589 6.40497,4.59823 0,0 z m 5.65599,-1.81318 c -1.54057,-7.0311 6.4718,-15.2015 3.89136,-2.98202 0.0871,1.24169 -2.36003,5.53029 -3.89136,2.98202 z m 5.8567,-7.70601 c 7.41797,-15.80277 1.51209,14.02641 0,0 z m -75.613,-2.71977 c -14.3952,-18.71732 -19.1921,-43.89058 -13.31952,-66.70396 3.76827,-16.25999 -1.84667,-28.15162 -5.35046,-44.00193 -6.27373,-12.14555 -18.30337,-28.89684 -16.86112,-42.80644 7.245,13.17562 15.80614,39.25197 26.70073,50.21851 15.67916,18.18117 37.52873,16.74392 60.15776,23.6749 7.09145,2.10808 -8.9144,10.52398 -7.95821,1.24514 -4.01093,12.99567 -4.11351,-3.45303 -7.00973,-0.55471 0.3813,6.44923 -9.57704,22.28294 -5.94358,6.75143 3.78255,-7.63587 -0.73629,-13.71529 -1.94633,-2.88006 -1.61522,10.0444 -8.26812,8.96972 -3.92695,-1.32301 1.66193,-13.79312 -0.89994,-3.42623 -4.73356,2.09871 -3.71648,-2.09109 0.95813,-16.09869 -2.78458,-3.54965 -3.1175,9.99708 -10.09242,9.55861 -15.19619,20.64943 -3.85105,3.56764 -17.38164,18.03174 -6.23765,8.03665 12.5945,-11.51855 1.57136,6.1556 -3.154,9.48172 5.41628,-2.35638 21.57734,-21.05589 13.39059,-5.77481 -4.36253,4.71682 -17.15973,16.61864 -4.30361,6.42471 4.11674,-5.40105 18.95318,-16.01724 8.58885,-2.65487 -4.04872,3.00498 -15.51824,16.47763 -3.914,7.60867 4.93528,-3.5933 21.34917,-25.54867 13.67142,-8.20598 -4.45081,4.81038 -13.01131,15.79774 -2.61024,5.47269 8.21988,-8.48583 12.67045,-22.429 21.917,-22.18312 2.61912,-6.99595 6.90138,-6.88967 6.49767,-2.65858 4.35811,-4.54651 10.61537,-4.15832 12.62344,-3.2743 4.52726,-9.9826 5.80417,-0.60964 6.38348,-1.46266 2.82872,-5.98566 5.35023,1.53763 9.0429,-4.81765 8.6404,-0.30508 21.22371,-11.76355 24.08327,-22.99677 4.26054,-13.21229 -1.5751,-25.6518 -6.16684,-33.49546 -4.50259,2.90099 -2.1898,-18.33174 -5.31872,-3.15177 -5.489,1.42101 -2.18892,-9.9188 -8.84215,6.71775 -2.15802,-3.3232 -1.86531,-16.84102 -4.18033,-4.05591 -5.63187,5.51751 -2.57421,-15.37667 -3.94772,-3.87674 -2.15265,14.13637 -5.18524,-13.85828 -5.16528,-0.0285 -0.39691,17.82025 -6.94201,-16.33625 -6.59558,-5.4366 1.02735,8.55503 -0.76021,3.70086 -1.42205,4.65384 3.6e-4,10.01869 -2.1898,-8.49171 -1.95041,0.91694 -2.73499,2.28516 -4.51677,9.93052 -8.97289,9.99749 3.67907,-6.24329 -7.49839,-29.48449 -1.82295,-11.42554 3.15856,4.56162 -2.05229,24.61025 -5.93775,18.65886 4.29936,-4.59566 1.19828,-31.06222 0.59788,-13.49407 1.48252,8.99219 -8.99013,15.99468 -3.89474,3.15458 4.63756,-18.33897 -9.04725,21.43917 -7.0218,4.0721 3.68461,-6.21581 3.09506,-23.96213 1.4595,-8.47192 0.31934,8.92477 -13.27783,16.71282 -5.00527,3.45469 3.75523,-14.40469 -0.7288,-2.98303 -3.86609,4.05439 -3.10791,11.36273 15.485,9.73187 21.33247,11.00087 -12.65783,11.20813 -29.17796,-3.94178 -36.01812,-15.05839 -14.1101,-20.88638 -20.90403,-46.42456 -17.92214,-71.57042 0.59256,-23.38338 20.73808,-58.98937 45.263,-56.53101 20.46912,0.71361 43.26502,-4.52463 61.25639,8.07771 17.04084,10.08038 18.91865,31.54593 24.52966,48.59693 7.96488,31.29329 18.98893,61.30452 16.56769,94.19478 -1.9152,27.94582 -10.24937,56.98395 -26.83833,79.66436 -2.60831,5.87916 -16.38034,14.09772 -7.17762,2.37929 13.18452,-16.31766 21.97987,-37.1686 25.45939,-57.69354 2.00169,-5.51246 1.69786,-5.44589 -0.54674,-8.66925 6.39007,-1.13591 -2.5731,-3.72208 4.09336,-6.49611 -6.00431,-1.87767 3.47817,-5.14777 -1.31534,-8.1649 4.66896,-3.56909 -3.01764,-4.96438 3.49112,-9.8974 -8.19882,-0.23093 3.56376,-5.65622 -4.85247,-6.1881 10.1442,-5.20324 -6.50461,-4.94529 2.43309,-9.222 2.91489,-5.43211 -12.98236,1.28703 -3.43309,-5.62174 10.25699,-5.9523 -10.83557,-1.80244 0.3633,-7.63912 3.53592,-5.27871 -9.49817,-3.37746 -0.41327,-9.66138 -9.20085,0.48848 0.49673,-5.58675 -4.76278,-8.5671 0.72333,-14.98704 -5.98586,-29.49279 -9.20921,-44.48954 -5.32604,-3.75246 -7.11659,-13.27829 -6.0395,-13.17697 -12.01225,8.00606 6.70154,-13.87133 -5.06956,-3.45296 -4.84042,-0.91821 7.55701,-14.97678 -1.87838,-6.18771 -7.64809,2.65495 6.19907,-16.49305 -4.48319,-4.55579 -7.77597,3.76816 4.63551,-17.5878 -4.57032,-4.48588 -6.82457,3.26674 2.73619,-14.81518 -4.36506,-3.43881 -4.6134,2.02312 -0.64002,-12.93319 -4.95766,-2.47867 -4.9169,-0.77574 -0.91783,-8.88236 -6.21763,-1.49582 -1.02343,-8.65933 -4.97894,2.83291 -5.72496,-6.5831 -3.01501,6.12541 -9.36807,-1.9384 -12.98922,1.48212 -17.17013,-3.20759 -38.32707,8.38389 -51.17631,22.60588 9.49007,4.91815 24.54145,7.14313 34.15617,15.53783 13.80552,8.74069 22.7888,23.5359 26.19541,39.26001 -2.32517,-3.08996 -14.68224,14.03839 -8.18727,1.00743 6.55103,-12.2764 0.0662,-1.82759 -4.66042,-2.74047 3.28089,-4.79864 5.72867,-17.77676 0.68731,-6.18298 -5.17058,9.62169 -10.50534,4.89289 -3.09271,-2.41584 3.4864,-4.74591 1.81414,-15.96357 -0.59734,-4.12389 -1.64045,8.5835 -15.21057,14.03976 -5.87472,2.2845 4.68423,-5.8317 4.05019,-21.99285 -0.73941,-6.55374 -0.36413,6.62972 -17.62785,21.59159 -8.91283,7.61213 4.35013,-3.73436 11.38666,-23.62973 4.85906,-19.74268 -1.71215,8.91529 -8.63891,25.20199 -17.16406,24.21021 5.56226,-7.47774 15.48257,-25.97033 12.38315,-27.2355 -2.71328,9.54664 -11.00616,28.06751 -20.18126,26.20437 4.41814,-1.14652 18.64145,-26.86655 7.39333,-10.17878 -3.04824,7.74462 -16.42091,12.74262 -6.14302,1.94141 4.63843,-6.19239 12.48801,-19.55621 9.85228,-24.24948 -3.645,9.63984 -9.49465,27.92275 -19.31775,28.11317 3.43056,-5.93782 9.79448,-13.57519 0.47036,-4.71025 -4.81632,-1.47265 13.05177,-24.61604 3.00638,-11.68089 -0.38335,8.50921 -19.61287,17.80001 -7.86772,5.11913 4.93007,-4.86486 -11.42534,7.21554 -3.52812,-2.49548 5.03977,-3.07047 12.39356,-29.53754 5.54996,-12.69778 -1.64109,8.08411 -11.49662,12.89252 -10.7737,21.27824 -0.31466,10.35281 -0.68137,23.66671 10.86081,28.22815 18.60198,10.78217 40.33108,11.65751 60.79346,16.18697 15.42036,2.88384 28.56951,0.89963 34.34934,15.53477 6.08945,12.21299 6.83457,27.58425 2.13343,40.31888 -9.1993,19.2833 -30.59554,27.1421 -50.08489,31.47186 -16.63065,4.28597 -29.2603,19.89696 -30.48734,36.93442 -4.36773,-2.14888 -1.18001,-13.26069 -10.36202,-6.14763 -8.98994,4.04155 -23.99141,-9.63164 -14.96235,6.64027 1.61216,7.67069 13.11613,17.73039 10.75668,22.39023 -2.21316,-0.48207 -3.7064,-2.2376 -5.09296,-3.85306 z m 6.33666,-27.90586 c -13.45693,-1.18481 2.73413,3.05698 0,0 z m -10.87978,-2.01158 c -5.70231,-4.08357 -10.3515,-20.8312 -7.59406,-4.32192 0.008,0.44353 10.51219,7.34629 7.59406,4.32192 z m 24.04568,-3.07464 c -0.32614,-3.03462 -3.98532,4.65285 0,0 z m 14.78453,-18.45481 c 3.94133,-6.07468 -11.41669,10.39257 -2.21226,1.82805 z m -33.29253,-11.3344 c 4.18436,-4.79331 8.65005,-19.01302 2.12594,-6.06751 -1.87335,6.11216 -20.10711,22.4193 -6.85988,11.27726 1.66262,-1.65546 3.30377,-3.34486 4.73394,-5.20975 z m -3.4079,7.70601 c 5.11764,-6.51459 -7.47648,6.63289 0,0 z m 45.02646,-1.63809 c -3.23356,0.0388 -2.93763,3.42959 0,0 z m 7.11732,-2.7082 c -6.97265,0.26016 1.31961,2.05701 0,0 z m 5.08539,-0.73439 c -3.18663,-0.99678 -2.80007,1.68405 0,0 z m -54.62276,-11.72475 c 5.03328,-5.35148 5.73722,-30.40128 2.57442,-10.50053 -0.19875,8.20747 -8.21955,16.0246 -10.66283,21.28079 3.24647,-3.12315 5.87625,-6.87211 8.08841,-10.78026 z m 60.39359,10.4593 c 4.63588,-2.90763 -9.69248,2.94588 0,0 z m -65.5,-7.94905 c -5.43341,0.79511 -8.49726,6.59833 -0.88125,0.97348 z m 0.99443,-11.98091 c 8.32916,-8.34984 -8.36572,-23.73831 -5.47842,-7.46854 -0.21957,6.17235 -1.13438,25.36473 4.56205,9.76926 z m 16.66785,3.38471 c -1.73562,-0.35389 1.04433,6.09482 0,0 z m -4.97917,-0.84992 c -1.78833,-0.6629 0.66219,3.88719 0,0 z m 5.97917,-3.68302 c 0.2847,-3.77743 1.04432,6.09482 0,0 z m -5,-0.90659 c -1.73561,-0.3539 1.04432,6.09481 0,0 z m 1.0553,-7.69354 c -1.40276,1.0472 0.73709,9.38599 0,0 z m -8.03447,0.49749 c -1.78833,-0.6629 0.66219,3.88719 0,0 z m -8.68311,5.12786 c -5.69054,-6.12409 -2.17205,0.36072 0,0 z m 3,-2.83077 c -4.87829,-5.22834 -2.86495,3.83989 0,0 z m 6.5,-0.4533 c -4.13729,-3.23403 -1.50893,3.29708 0,0 z M 468.719,413.5678 c -1.03189,-0.93343 0.82934,0.24545 0,3.17306 z m 111.99378,-12.04293 c -1.78833,-0.66287 0.66219,3.88718 0,0 z M 474.83992,411.874 c -7.91849,-3.13455 0.97436,5.2491 0,0 z m 137.86271,-16.92983 c -1.78833,-0.6629 0.66219,3.88719 0,0 z m -143.70359,11.59756 c -3.37475,0.54502 -1.06755,5.92609 0,0 z m 143.70359,-17.0371 c -1.78833,-0.66286 0.6622,3.88719 0,0 z m -47.97997,-19.29649 c -1.50096,-0.14537 0.82092,7.246 0,0 z m -38.00988,9.41923 c -1.78833,-0.6629 0.66219,3.88719 0,0 z m -10.97585,-4.57904 c -1.32124,1.42022 0.5666,6.62384 0,0 z m 31,-1.81318 c -1.32124,1.42022 0.5666,6.62384 0,0 z m -18.68945,-3.44518 c -2.29736,-6.80547 1.32798,14.63231 0.6423,2.25207 z m -28.30156,-5.17798 c -1.39705,2.13016 0.77744,9.8438 0,0 z m -2.01052,-1.35989 c -1.09762,-1.76542 0.32408,9.67039 0,0 z m -19.58164,-0.0151 c -3.18233,-1.59361 2.75723,3.95535 0,0 z m 12.56524,-3.15792 c -1.03196,-0.93361 0.82956,0.24604 0,3.17306 z m 24.22734,1.2535 c -8.69359,-3.36177 -10.18016,1.64374 0,0 z m -36.41667,-3.29333 c 5.62036,-7.92054 24.17865,4.04384 25.3242,0.98896 -11.70648,-5.08909 -26.11496,-7.57052 -33.86948,-18.66744 1.72772,4.74046 4.01407,23.95405 8.54528,17.67848 z m 13.62756,-33.31714 c 3.06358,-4.15759 -6.0763,5.26252 0,0 z m -22.88281,-12.4656 c -0.88061,-8.54015 -2.16978,8.26077 0,0 z m 24.56212,-3.65035 c -2.34307,0.58962 -1.74069,4.94717 0,0 z m 3.10133,-6.95146 c 3.02752,-7.32173 1.59007,-11.19359 -0.65186,-1.31435 -2.69764,7.22593 -2.96656,10.59933 0.65186,1.31435 z m -25.36925,1.04361 c 3.74299,-5.90022 -6.8742,5.92258 0,0 z m 37.39076,-3.5118 c -1.07424,-5.01109 -1.9925,11.34476 0,0 z m -16.2466,-2.9653 c -1.78833,-0.66288 0.66219,3.88719 0,0 z m 1.00988,-5.02565 c -1.50096,-0.14538 0.82092,7.246 0,0 z m -15.21231,-5.08311 c 2.2813,-8.14732 -7.27849,4.90452 0,0 z m 83.51932,-28.01493 c -4.19875,-3.27907 -2.47501,1.62986 0,0 z m -48.75,-3.87047 c -6.19841,-0.92149 -0.12535,1.58265 0,0 z m 5.47917,0.0527 c -3.18655,-0.99682 -2.80015,1.68409 0,0 z m 41.28448,251.51274 c 2.24026,-14.50971 7.6905,3.53172 0,0 z m 5.01815,-5.50601 c 6.10293,-13.31396 6.80817,5.38637 0,0 z m 7.60437,-5.67138 c 0.24188,-4.23478 3.6458,3.24987 0,0 z m 14.86383,-241.54231 c 1.6106,-0.85224 -2.71355,-3.325 2.5,-0.51178 0.48966,1.92946 -6.83748,1.49399 -2.5,0.51178 z m -4.5,-3.58784 c 5.60764,-6.70802 5.4026,5.69557 0,0 z m -3.47301,-3.68376 c -9.3474,-0.84061 -9.32933,-7.37653 -17.13318,-9.43098 -9.65888,-7.73552 8.92885,-3.15977 8.3605,0.54962 2.49302,1.89755 13.28396,3.25873 12.71167,9.29315 -1.21726,0.58019 -2.96301,0.73613 -3.93899,-0.41179 z m -23.88862,-14.9983 c 0.27458,-5.03007 3.04169,4.71796 0,0 z m -5.63837,-2.26648 c 3.60226,-3.65286 3.90721,3.54856 0,0 z"
       id="path2996-1"
       inkscape:connector-curvature="0"
       transform="matrix(0.73634086,0,0,0.65180102,156.77315,163.69037)"
       sodipodi:nodetypes="cccccccccccccccccccccccccccccccccccccccccccccccccccccccccccccccccccccccccccccccccccccccccccccccccccccccccccccccccccccccccccccccccccccccccccccccccccccccccccccccccccccccccccccccccccccccccccccccccccccccccccccccccccccccccccccccccccccccccccccccccccccccccccccccccccccccccccccccccccccccccccccccccccccccccccccccccccccc" />
    <path
       style="fill:none;stroke:#000000;stroke-width:2;stroke-linecap:butt;stroke-linejoin:miter;stroke-miterlimit:4;stroke-opacity:1;stroke-dasharray:none;marker-end:url(#Arrow1Lend)"
       d="m 537.36582,239.21846 0,220 -30,-15"
       id="path3087-4"
       inkscape:connector-curvature="0"
       sodipodi:nodetypes="ccc" />
    <path
       style="fill:none;stroke:#000000;stroke-width:2;stroke-linecap:butt;stroke-linejoin:miter;stroke-miterlimit:4;stroke-opacity:1;stroke-dasharray:none;marker-end:url(#Arrow1Lend)"
       d="m 507.36582,239.21846 0,205"
       id="path4301-9"
       inkscape:connector-curvature="0"
       sodipodi:nodetypes="cc" />
    <text
       xml:space="preserve"
       style="font-size:40px;font-style:normal;font-weight:normal;line-height:125%;letter-spacing:0px;word-spacing:0px;fill:#000000;fill-opacity:1;stroke:none;font-family:Sans"
       x="240"
       y="582.36218"
       id="text5821"
       sodipodi:linespacing="125%"><tspan
         sodipodi:role="line"
         id="tspan5823"
         x="240"
         y="582.36218">Front</tspan></text>
    <text
       xml:space="preserve"
       style="font-size:40px;font-style:normal;font-weight:normal;line-height:125%;letter-spacing:0px;word-spacing:0px;fill:#000000;fill-opacity:1;stroke:none;font-family:Sans"
       x="490"
       y="582.36218"
       id="text5825"
       sodipodi:linespacing="125%"><tspan
         sodipodi:role="line"
         id="tspan5827"
         x="490"
         y="582.36218">Above</tspan></text>
  </g>
</svg>
