<?xml version="1.0" encoding="UTF-8" standalone="no"?>
<!-- Created with Inkscape (http://www.inkscape.org/) -->

<svg
   xmlns:dc="http://purl.org/dc/elements/1.1/"
   xmlns:cc="http://creativecommons.org/ns#"
   xmlns:rdf="http://www.w3.org/1999/02/22-rdf-syntax-ns#"
   xmlns:svg="http://www.w3.org/2000/svg"
   xmlns="http://www.w3.org/2000/svg"
   xmlns:sodipodi="http://sodipodi.sourceforge.net/DTD/sodipodi-0.dtd"
   xmlns:inkscape="http://www.inkscape.org/namespaces/inkscape"
   width="641.48688"
   height="698.31158"
   id="svg2"
   version="1.1"
   inkscape:version="0.48.3.1 r9886"
   sodipodi:docname="drone_resting.svg"
   inkscape:export-filename="/home/joakim/workspace/Ljudjägare/RunForLife/res/drawable-xxhdpi/drone_resting.png"
   inkscape:export-xdpi="11.21276"
   inkscape:export-ydpi="11.21276">
  <defs
     id="defs4">
    <filter
       inkscape:collect="always"
       id="filter3821"
       x="-0.19474794"
       width="1.3894958"
       y="-0.25277635"
       height="1.5055526"
       color-interpolation-filters="sRGB">
      <feGaussianBlur
         inkscape:collect="always"
         stdDeviation="42.300865"
         id="feGaussianBlur3823" />
    </filter>
  </defs>
  <sodipodi:namedview
     id="base"
     pagecolor="#ffffff"
     bordercolor="#666666"
     borderopacity="1.0"
     inkscape:pageopacity="0.0"
     inkscape:pageshadow="2"
     inkscape:zoom="0.35"
     inkscape:cx="232.84284"
     inkscape:cy="519.1498"
     inkscape:document-units="px"
     inkscape:current-layer="layer1"
     showgrid="false"
     fit-margin-top="10"
     fit-margin-left="10"
     fit-margin-right="10"
     fit-margin-bottom="10"
     inkscape:window-width="1356"
     inkscape:window-height="700"
     inkscape:window-x="0"
     inkscape:window-y="41"
     inkscape:window-maximized="1" />
  <metadata
     id="metadata7">
    <rdf:RDF>
      <cc:Work
         rdf:about="">
        <dc:format>image/svg+xml</dc:format>
        <dc:type
           rdf:resource="http://purl.org/dc/dcmitype/StillImage" />
        <dc:title></dc:title>
      </cc:Work>
    </rdf:RDF>
  </metadata>
  <g
     inkscape:label="Layer 1"
     inkscape:groupmode="layer"
     id="layer1"
     transform="translate(-36.39941,-123.52953)">
    <path
       style="opacity:0.77232139;fill:#333333;filter:url(#filter3821)"
       d="m 215.44617,457.24412 c -60.27382,9.76612 -107.04927,56.64853 -101.33779,104.55192 1.85759,24.8407 17.08217,48.17685 39.89265,65.3169 9.66927,12.85149 7.99267,28.52125 11.22339,42.73736 1.28173,18.75423 -14.5496,35.17315 -14.04471,53.90764 0.37176,19.20468 5.80664,38.67155 19.2767,54.99012 23.62474,29.86454 67.32792,50.07334 113.09578,48.64246 34.42544,0.29886 65.3215,-13.56467 94.15492,-26.47909 29.45397,-10.91373 63.78359,-13.04854 95.47056,-7.08697 29.17512,3.93455 60.81789,4.01395 87.70095,-6.7473 56.25366,-20.24461 87.59325,-74.38237 68.40013,-120.37077 -6.72918,-17.90602 -22.56365,-32.46562 -36.2524,-47.32216 -6.03557,-15.71363 -13.86274,-31.92727 -11.6147,-48.63843 29.33778,-42.52398 10.23761,-101.32775 -42.11066,-127.60997 -44.59352,-24.1107 -109.94342,-23.11327 -152.59723,3.56339 -16.61711,8.91765 -31.76009,20.83444 -37.73297,36.1182 -4.41672,-1.06539 -9.46039,-0.73403 -13.42753,0.99267 -13.5586,-14.97648 -37.24745,-21.73351 -59.28727,-26.07774 -19.91353,-3.45544 -40.7317,-3.51686 -60.80982,-0.48823 z m 8.72122,29.76818 c 30.01831,-4.71346 61.48021,2.81795 85.79447,16.75391 10.17355,8.88892 11.10995,21.34287 16.04461,32.16309 5.45379,17.08552 8.46226,35.42766 9.75141,52.43242 -2.76838,0.45742 -5.70171,1.26463 -8.19935,-0.3417 -22.97753,-9.31462 -40.58364,-24.74929 -58.08934,-39.18169 -3.57263,-3.58753 -2.42725,-8.63964 1.64563,-11.60267 4.09578,-5.02511 5.89567,-11.23721 3.85745,-17.06096 -14.96886,3.78664 -27.69412,11.26926 -41.83001,16.27765 -8.6941,4.30489 -15.61079,11.55106 -15.63812,19.81154 5.16843,1.5148 -0.10678,5.71164 -1.21813,7.99955 -3.72878,5.13154 -8.99853,12.52944 -2.59529,17.83037 6.87448,5.32529 17.91157,1.37694 22.86238,-3.79444 3.34458,-5.475 12.49454,-3.77613 17.57189,-0.76595 9.11542,4.3799 19.92802,6.57125 29.24967,10.88897 11.00631,4.5348 21.39174,9.87113 30.67689,16.26723 -8.47145,7.87718 -22.91665,7.89343 -34.53992,11.21589 -23.13478,5.06948 -48.77552,8.75174 -71.40275,0.71503 -34.01989,-10.32492 -58.74405,-38.34893 -54.79412,-66.82322 3.03542,-29.81065 32.85067,-57.03541 70.85263,-62.78502 z m 223.50387,-29.80804 c 51.8134,-7.61575 107.41734,26.07214 108.48103,67.29422 1.74052,30.46424 -28.7008,60.51386 -68.22042,64.72709 -20.87105,3.23705 -42.64359,4.45058 -63.5441,1.64592 -1.51658,-0.28998 -3.84321,-1.34425 -1.4151,-2.28537 10.82089,-12.63542 22.15099,-25.55824 38.04098,-34.62345 3.05314,-2.3165 3.9303,-6.98074 8.43795,-7.74705 12.75932,4.95478 20.9689,15.27673 35.19675,18.24173 6.49998,2.39677 9.18499,2.24752 4.5517,-2.90269 -11.02279,-16.96336 -15.46461,-36.10715 -25.93304,-53.14547 -2.29809,-2.58964 -6.74438,-1.77304 -10.01768,-2.15055 -9.25431,-4.08161 -15.14225,-13.27627 -26.62235,-13.86127 -9.01578,-0.40732 -13.09327,8.09245 -9.50066,13.61836 1.96034,4.77847 8.53677,8.62861 6.12467,14.1348 -2.76346,7.77259 -9.68263,14.18951 -12.41711,22.02359 -6.97204,12.65584 -15.61185,25.17985 -28.47347,34.65418 -2.54084,0.12022 -5.67148,3.0222 -5.48232,-0.77466 -7.18391,-18.21712 -12.95512,-36.84852 -14.31737,-55.92784 -0.8561,-8.46984 -2.45249,-17.33652 -0.28909,-25.57464 13.14912,-18.64501 37.94301,-31.31999 63.94758,-37.12363 0.4881,-0.0575 0.96592,-0.15758 1.45205,-0.22323 z M 199.0715,646.73168 c 3.74994,0.53926 3.42101,1.56142 0.2658,3.13655 -2.06154,2.21939 -0.70062,-2.88106 -0.2658,-3.13655 z m 347.78042,-45.87877 c 2.33944,1.59209 -0.33483,1.76155 -0.97602,0.62918 0.23555,-0.0983 0.65996,-0.99527 0.97602,-0.62918 z m -285.85579,59.3267 c 21.39823,-3.28454 43.77924,-3.53547 64.58993,1.82981 -5.14625,8.31981 -13.94893,14.97669 -20.9668,22.25034 -12.85433,5.98155 -18.10129,19.42027 -32.84746,23.15548 -8.16098,-2.22334 -17.71166,-7.63216 -26.26307,-3.42502 -8.03473,4.86081 -3.594,14.40103 3.2381,18.59463 2.81585,2.42481 7.90229,4.21157 6.95209,8.07256 3.59962,10.62502 18.82682,15.99109 32.12714,16.13295 8.72022,1.01117 17.71702,7.19237 26.61871,3.72343 6.9192,-3.15997 7.57957,-11.05181 2.10781,-15.3345 -2.91827,-3.25496 -11.0187,-5.56646 -7.90751,-10.44555 3.55456,-9.17572 13.29983,-16.42222 15.04459,-26.07616 7.35764,-7.06672 11.07435,-16.37558 19.19934,-22.85153 1.71282,4.19485 8.04727,8.05822 13.4374,4.95512 2.25155,-0.34838 4.73649,-5.21168 4.90532,-1.48852 5.61402,18.72017 7.47928,37.91849 7.73127,57.04645 0.90525,11.31617 2.11901,22.77955 -0.14661,34.07888 -27.78293,10.58332 -54.45933,26.74837 -86.81652,26.69059 -40.86905,0.69474 -79.83033,-23.21392 -88.50016,-54.23547 -9.16516,-28.37791 7.80398,-60.17025 40.53087,-74.84784 8.21058,-3.78955 17.43975,-6.46621 26.96556,-7.82565 z m 230.33545,-31.26243 c 46.59152,-7.61646 96.74948,20.17085 102.70048,56.78103 7.71451,34.59473 -23.28026,72.89544 -68.90036,79.17196 -22.8938,3.56984 -45.89222,-1.28084 -68.7343,-2.05652 -9.73634,0.97704 -16.94881,-6.91409 -18.14018,-13.72311 -9.27241,-21.68857 -17.90401,-43.96835 -21.86652,-66.575 4.3934,0.85679 6.44295,-3.6297 8.09653,-6.01479 1.73857,-3.34921 1.65414,-7.36106 2.8749,-10.5561 6.83845,3.87363 13.66036,7.84122 20.4426,11.85538 13.65344,9.44726 24.49918,21.13289 38.57652,30.149 2.57908,6.30956 -2.83691,12.95052 0.56016,19.3325 1.41291,5.22219 9.98848,11.04936 16.25173,6.5039 4.19871,-3.20626 2.8016,-8.41194 7.13259,-11.65866 7.89488,-8.2892 20.96872,-15.79638 19.70541,-27.23383 -1.03477,-6.46211 -4.59601,-12.87434 -1.54336,-19.29726 1.56928,-5.8386 0.84792,-14.79876 -8.39167,-16.22936 -10.70351,-1.11429 -17.70013,7.68013 -19.46239,14.80657 -0.0279,2.26113 -1.90485,1.76794 -3.66474,0.47619 -8.64274,-5.57043 -20.24887,-6.74278 -29.83129,-11.20876 -10.69772,-4.39577 -20.57694,-9.74498 -29.65931,-15.8583 14.33228,-11.04626 34.47718,-15.79715 53.85321,-18.6648 z"
       id="path2996-8"
       inkscape:connector-curvature="0"
       transform="matrix(0.8579996,0,0,0.65979207,36.005864,198.90487)" />
    <path
       style="fill:#2c3c6c;fill-opacity:1;stroke:#000000;stroke-width:10.76494217;stroke-miterlimit:4;stroke-opacity:1;stroke-dasharray:none"
       d="m 225.14758,504.66799 c -51.57688,6.55907 -91.60308,38.04599 -86.71571,70.21862 1.58955,16.68339 14.61737,32.35629 34.13652,43.8678 8.27408,8.63125 6.8394,19.1553 9.60396,28.70305 1.09679,12.59562 -12.45023,23.62281 -12.0182,36.20517 0.31812,12.89815 4.96881,25.97239 16.49527,36.93218 20.21591,20.05747 57.61314,33.63 96.77714,32.669 29.45818,0.20072 55.89623,-9.11023 80.56927,-17.78375 25.20404,-7.32982 54.58023,-8.76359 81.69507,-4.75972 24.96543,2.64251 52.04245,2.69584 75.04655,-4.53158 48.13679,-13.59658 74.95438,-49.9563 58.53064,-80.8428 -5.75822,-12.02595 -19.30793,-21.80439 -31.02152,-31.78226 -5.1647,-10.55351 -11.86248,-21.44283 -9.93881,-32.66629 25.10462,-28.55974 8.76042,-68.05323 -36.0345,-85.70476 -38.1591,-16.19311 -94.07964,-15.52322 -130.57891,2.39323 -14.21942,5.98923 -27.17742,13.99272 -32.28847,24.25752 -3.77943,-0.71554 -8.09534,-0.49299 -11.49006,0.66668 -11.60223,-10.05842 -31.873,-14.59654 -50.73269,-17.51419 -17.0402,-2.32072 -34.85451,-2.36198 -52.03555,-0.3279 z m 7.46284,19.99275 c 25.68695,-3.16563 52.6092,1.89257 73.41515,11.25218 8.7056,5.96992 9.50689,14.33419 13.72952,21.6012 4.66686,11.4749 7.24124,23.79375 8.34438,35.2144 -2.36893,0.30721 -4.87901,0.84934 -7.01626,-0.22949 -19.6621,-6.25584 -34.72781,-16.62199 -49.70761,-26.31501 -3.05713,-2.40944 -2.07702,-5.80251 1.40818,-7.79252 3.5048,-3.37495 24.06173,-19.08045 22.3176,-22.99177 -12.809,2.54316 -42.71487,19.10197 -54.81108,22.46568 -7.43963,2.89123 -13.3583,7.75786 -13.38169,13.30573 4.42267,1.01736 -0.0914,3.83602 -1.04237,5.37262 -3.19076,3.44642 -34.49644,20.62675 -29.01713,24.18694 5.88256,3.57654 42.12342,-11.28703 46.35988,-14.7602 2.86199,-3.6771 10.69169,-2.53611 15.03643,-0.51443 7.80015,2.94161 17.0526,4.41335 25.02922,7.31319 9.41821,3.04564 18.30512,6.6296 26.25051,10.92532 -7.2491,5.29043 -19.60999,5.30134 -29.55614,7.53275 -19.79665,3.40475 -41.73768,5.8778 -61.10002,0.48023 -29.11115,-6.93437 -50.26785,-25.75571 -46.88786,-44.87947 2.59744,-20.02127 28.11064,-38.30583 60.62929,-42.16735 z m 191.2544,-20.01952 c 44.33722,-5.11485 91.91805,17.51043 92.82826,45.1958 1.48938,20.46023 -24.55955,40.642 -58.37687,43.47167 -17.85956,2.17406 -36.49053,2.98908 -54.37529,1.10542 -1.29776,-0.19475 -3.28868,-0.90282 -1.21092,-1.53488 9.25954,-8.48614 18.95482,-17.16529 32.55203,-23.25363 2.6126,-1.55579 3.3632,-4.68837 7.22044,-5.20303 10.91827,3.32771 17.94329,10.26008 30.11819,12.25142 5.5621,1.60971 18.23245,6.93693 14.2677,3.47798 -9.4323,-11.39285 -23.60598,-29.67757 -32.56391,-41.12076 -1.9665,-1.73924 -5.77123,-1.1908 -8.57223,-1.44435 -7.919,-2.74126 -36.29609,-21.80677 -46.11973,-22.19967 -7.71488,-0.27355 12.13469,18.32525 15.20893,22.03653 1.67748,3.2093 7.30499,5.79511 5.24093,9.49315 -2.36472,5.22019 -8.28552,9.52989 -10.62544,14.79136 -5.96604,8.49986 -13.35921,16.91117 -24.36502,23.27427 -2.17422,0.0807 -4.85314,2.02975 -4.69127,-0.52027 -6.14734,-12.23489 -11.08582,-24.74802 -12.25151,-37.56197 -0.73258,-5.68847 -2.09862,-11.64347 -0.24738,-17.17631 11.25183,-12.52226 32.4682,-21.03497 54.72056,-24.93279 0.41767,-0.0386 0.82655,-0.10583 1.24253,-0.14992 z m -212.7292,127.28943 c 3.20886,0.36217 2.92739,1.04867 0.22745,2.10656 -1.76408,1.49057 -0.59953,-1.93497 -0.22745,-2.10656 z m 297.59904,-30.81286 c 2.00188,1.06926 -0.28651,1.18308 -0.83519,0.42256 0.20157,-0.066 0.56474,-0.66844 0.83519,-0.42256 z m -244.60954,39.84469 c 18.31067,-2.20595 37.46232,-2.37447 55.27022,1.22893 -4.40369,5.5877 -11.93623,10.05857 -17.94149,14.94366 -10.99957,4.01729 -15.48944,13.04294 -28.10788,15.55156 -6.98343,-1.49323 -42.81675,-15.9808 -50.13427,-13.15523 -6.8754,3.26459 24.58528,20.52688 30.43158,23.34337 2.40955,1.62854 6.76206,2.82855 5.94897,5.42165 3.08023,7.13592 16.11029,10.73985 27.4915,10.83512 7.46198,0.67912 49.73651,18.39918 57.35377,16.06939 5.92083,-2.12228 -28.08997,-20.99123 -32.77221,-23.86755 -2.49719,-2.18608 -9.42881,-3.73851 -6.76653,-7.01539 3.04167,-6.16255 11.38079,-11.0294 12.8738,-17.51314 6.296,-4.74611 9.47642,-10.99808 16.42906,-15.34742 1.46567,2.81732 6.88612,5.41202 11.49851,3.32793 1.92667,-0.23398 4.05306,-3.50024 4.19753,-0.99971 4.80397,12.57274 6.40009,25.46662 6.61572,38.31325 0.77463,7.6001 1.81326,15.29908 -0.12546,22.88788 -23.77412,7.10791 -46.60137,17.9646 -74.28972,17.92579 -34.97204,0.4666 -68.31158,-15.59081 -75.73044,-36.42535 -7.84272,-19.05902 6.67794,-40.41123 34.68265,-50.26892 7.02588,-2.54512 14.92336,-4.3428 23.07469,-5.25582 z m 197.10026,-20.99632 c 39.86881,-5.11532 82.78945,13.54705 87.88178,38.13499 6.60138,23.23434 -19.92114,48.95766 -58.9587,53.17307 -19.59044,2.39756 -39.27041,-0.86024 -58.8166,-1.38119 -8.33148,0.65619 -14.50326,-4.64361 -15.52272,-9.21665 -7.93449,-14.56637 -15.32064,-29.5298 -18.71139,-44.71276 3.75947,0.57544 5.51329,-2.43776 6.92827,-4.03962 1.48772,-2.24938 1.41547,-4.9438 2.46008,-7.08964 5.85173,2.6016 11.68931,5.26629 17.49293,7.96226 11.68338,6.34492 20.96419,14.19316 33.0103,20.24852 2.20694,4.23759 -26.63069,28.37233 -23.72379,32.65856 1.20904,3.5073 32.75036,-12.25366 38.10989,-15.30646 3.59287,-2.15337 2.39735,-5.64958 6.10342,-7.83013 6.75573,-5.56714 17.94314,-10.60908 16.86211,-18.29064 -0.88546,-4.34005 -3.93285,-8.6466 -1.32067,-12.96033 1.34285,-3.92129 14.55593,-22.82931 6.64953,-23.79011 -9.1591,-0.74838 -28.97653,18.04833 -30.48451,22.83455 -0.0239,1.5186 -1.63,1.18737 -3.13596,0.31981 -7.39567,-3.74118 -17.32715,-4.52855 -25.52692,-7.52797 -9.15414,-2.95227 -17.60788,-6.54487 -25.37975,-10.65067 12.26427,-7.41883 29.50245,-10.6096 46.0827,-12.53555 z"
       id="path2996"
       inkscape:connector-curvature="0"
       sodipodi:nodetypes="cccccccccccccccccccccccccccccccccccccccccccccccccccccccccccccccccccccccccccccccccccccccccccccccccccccccccccccc" />
  </g>
</svg>
