<?xml version="1.0" encoding="UTF-8" standalone="no"?>
<!-- Created with Inkscape (http://www.inkscape.org/) -->

<svg
   xmlns:dc="http://purl.org/dc/elements/1.1/"
   xmlns:cc="http://creativecommons.org/ns#"
   xmlns:rdf="http://www.w3.org/1999/02/22-rdf-syntax-ns#"
   xmlns:svg="http://www.w3.org/2000/svg"
   xmlns="http://www.w3.org/2000/svg"
   xmlns:sodipodi="http://sodipodi.sourceforge.net/DTD/sodipodi-0.dtd"
   xmlns:inkscape="http://www.inkscape.org/namespaces/inkscape"
   width="641.48688"
   height="698.31158"
   id="svg2"
   version="1.1"
   inkscape:version="0.48.3.1 r9886"
   sodipodi:docname="New document 1">
  <defs
     id="defs4">
    <filter
       inkscape:collect="always"
       id="filter3821"
       x="-0.19474794"
       width="1.3894958"
       y="-0.25277635"
       height="1.5055526"
       color-interpolation-filters="sRGB">
      <feGaussianBlur
         inkscape:collect="always"
         stdDeviation="42.300865"
         id="feGaussianBlur3823" />
    </filter>
  </defs>
  <sodipodi:namedview
     id="base"
     pagecolor="#ffffff"
     bordercolor="#666666"
     borderopacity="1.0"
     inkscape:pageopacity="0.0"
     inkscape:pageshadow="2"
     inkscape:zoom="0.35"
     inkscape:cx="232.84284"
     inkscape:cy="519.1498"
     inkscape:document-units="px"
     inkscape:current-layer="layer1"
     showgrid="false"
     fit-margin-top="10"
     fit-margin-left="10"
     fit-margin-right="10"
     fit-margin-bottom="10"
     inkscape:window-width="1356"
     inkscape:window-height="700"
     inkscape:window-x="0"
     inkscape:window-y="41"
     inkscape:window-maximized="1" />
  <metadata
     id="metadata7">
    <rdf:RDF>
      <cc:Work
         rdf:about="">
        <dc:format>image/svg+xml</dc:format>
        <dc:type
           rdf:resource="http://purl.org/dc/dcmitype/StillImage" />
        <dc:title></dc:title>
      </cc:Work>
    </rdf:RDF>
  </metadata>
  <g
     inkscape:label="Layer 1"
     inkscape:groupmode="layer"
     id="layer1"
     transform="translate(-36.39941,-123.52953)">
    <path
       style="opacity:0.77232139;fill:#333333;filter:url(#filter3821)"
       d="m 215.44617,457.24412 c -60.27382,9.76612 -107.04927,56.64853 -101.33779,104.55192 1.85759,24.8407 17.08217,48.17685 39.89265,65.3169 9.66927,12.85149 7.99267,28.52125 11.22339,42.73736 1.28173,18.75423 -14.5496,35.17315 -14.04471,53.90764 0.37176,19.20468 5.80664,38.67155 19.2767,54.99012 23.62474,29.86454 67.32792,50.07334 113.09578,48.64246 34.42544,0.29886 65.3215,-13.56467 94.15492,-26.47909 29.45397,-10.91373 63.78359,-13.04854 95.47056,-7.08697 29.17512,3.93455 60.81789,4.01395 87.70095,-6.7473 56.25366,-20.24461 87.59325,-74.38237 68.40013,-120.37077 -6.72918,-17.90602 -22.56365,-32.46562 -36.2524,-47.32216 -6.03557,-15.71363 -13.86274,-31.92727 -11.6147,-48.63843 29.33778,-42.52398 10.23761,-101.32775 -42.11066,-127.60997 -44.59352,-24.1107 -109.94342,-23.11327 -152.59723,3.56339 -16.61711,8.91765 -31.76009,20.83444 -37.73297,36.1182 -4.41672,-1.06539 -9.46039,-0.73403 -13.42753,0.99267 -13.5586,-14.97648 -37.24745,-21.73351 -59.28727,-26.07774 -19.91353,-3.45544 -40.7317,-3.51686 -60.80982,-0.48823 z m 8.72122,29.76818 c 30.01831,-4.71346 61.48021,2.81795 85.79447,16.75391 10.17355,8.88892 11.10995,21.34287 16.04461,32.16309 5.45379,17.08552 8.46226,35.42766 9.75141,52.43242 -2.76838,0.45742 -5.70171,1.26463 -8.19935,-0.3417 -22.97753,-9.31462 -40.58364,-24.74929 -58.08934,-39.18169 -3.57263,-3.58753 -2.42725,-8.63964 1.64563,-11.60267 4.09578,-5.02511 5.89567,-11.23721 3.85745,-17.06096 -14.96886,3.78664 -27.69412,11.26926 -41.83001,16.27765 -8.6941,4.30489 -15.61079,11.55106 -15.63812,19.81154 5.16843,1.5148 -0.10678,5.71164 -1.21813,7.99955 -3.72878,5.13154 -8.99853,12.52944 -2.59529,17.83037 6.87448,5.32529 17.91157,1.37694 22.86238,-3.79444 3.34458,-5.475 12.49454,-3.77613 17.57189,-0.76595 9.11542,4.3799 19.92802,6.57125 29.24967,10.88897 11.00631,4.5348 21.39174,9.87113 30.67689,16.26723 -8.47145,7.87718 -22.91665,7.89343 -34.53992,11.21589 -23.13478,5.06948 -48.77552,8.75174 -71.40275,0.71503 -34.01989,-10.32492 -58.74405,-38.34893 -54.79412,-66.82322 3.03542,-29.81065 32.85067,-57.03541 70.85263,-62.78502 z m 223.50387,-29.80804 c 51.8134,-7.61575 107.41734,26.07214 108.48103,67.29422 1.74052,30.46424 -28.7008,60.51386 -68.22042,64.72709 -20.87105,3.23705 -42.64359,4.45058 -63.5441,1.64592 -1.51658,-0.28998 -3.84321,-1.34425 -1.4151,-2.28537 10.82089,-12.63542 22.15099,-25.55824 38.04098,-34.62345 3.05314,-2.3165 3.9303,-6.98074 8.43795,-7.74705 12.75932,4.95478 20.9689,15.27673 35.19675,18.24173 6.49998,2.39677 9.18499,2.24752 4.5517,-2.90269 -11.02279,-16.96336 -15.46461,-36.10715 -25.93304,-53.14547 -2.29809,-2.58964 -6.74438,-1.77304 -10.01768,-2.15055 -9.25431,-4.08161 -15.14225,-13.27627 -26.62235,-13.86127 -9.01578,-0.40732 -13.09327,8.09245 -9.50066,13.61836 1.96034,4.77847 8.53677,8.62861 6.12467,14.1348 -2.76346,7.77259 -9.68263,14.18951 -12.41711,22.02359 -6.97204,12.65584 -15.61185,25.17985 -28.47347,34.65418 -2.54084,0.12022 -5.67148,3.0222 -5.48232,-0.77466 -7.18391,-18.21712 -12.95512,-36.84852 -14.31737,-55.92784 -0.8561,-8.46984 -2.45249,-17.33652 -0.28909,-25.57464 13.14912,-18.64501 37.94301,-31.31999 63.94758,-37.12363 0.4881,-0.0575 0.96592,-0.15758 1.45205,-0.22323 z M 199.0715,646.73168 c 3.74994,0.53926 3.42101,1.56142 0.2658,3.13655 -2.06154,2.21939 -0.70062,-2.88106 -0.2658,-3.13655 z m 347.78042,-45.87877 c 2.33944,1.59209 -0.33483,1.76155 -0.97602,0.62918 0.23555,-0.0983 0.65996,-0.99527 0.97602,-0.62918 z m -285.85579,59.3267 c 21.39823,-3.28454 43.77924,-3.53547 64.58993,1.82981 -5.14625,8.31981 -13.94893,14.97669 -20.9668,22.25034 -12.85433,5.98155 -18.10129,19.42027 -32.84746,23.15548 -8.16098,-2.22334 -17.71166,-7.63216 -26.26307,-3.42502 -8.03473,4.86081 -3.594,14.40103 3.2381,18.59463 2.81585,2.42481 7.90229,4.21157 6.95209,8.07256 3.59962,10.62502 18.82682,15.99109 32.12714,16.13295 8.72022,1.01117 17.71702,7.19237 26.61871,3.72343 6.9192,-3.15997 7.57957,-11.05181 2.10781,-15.3345 -2.91827,-3.25496 -11.0187,-5.56646 -7.90751,-10.44555 3.55456,-9.17572 13.29983,-16.42222 15.04459,-26.07616 7.35764,-7.06672 11.07435,-16.37558 19.19934,-22.85153 1.71282,4.19485 8.04727,8.05822 13.4374,4.95512 2.25155,-0.34838 4.73649,-5.21168 4.90532,-1.48852 5.61402,18.72017 7.47928,37.91849 7.73127,57.04645 0.90525,11.31617 2.11901,22.77955 -0.14661,34.07888 -27.78293,10.58332 -54.45933,26.74837 -86.81652,26.69059 -40.86905,0.69474 -79.83033,-23.21392 -88.50016,-54.23547 -9.16516,-28.37791 7.80398,-60.17025 40.53087,-74.84784 8.21058,-3.78955 17.43975,-6.46621 26.96556,-7.82565 z m 230.33545,-31.26243 c 46.59152,-7.61646 96.74948,20.17085 102.70048,56.78103 7.71451,34.59473 -23.28026,72.89544 -68.90036,79.17196 -22.8938,3.56984 -45.89222,-1.28084 -68.7343,-2.05652 -9.73634,0.97704 -16.94881,-6.91409 -18.14018,-13.72311 -9.27241,-21.68857 -17.90401,-43.96835 -21.86652,-66.575 4.3934,0.85679 6.44295,-3.6297 8.09653,-6.01479 1.73857,-3.34921 1.65414,-7.36106 2.8749,-10.5561 6.83845,3.87363 13.66036,7.84122 20.4426,11.85538 13.65344,9.44726 24.49918,21.13289 38.57652,30.149 2.57908,6.30956 -2.83691,12.95052 0.56016,19.3325 1.41291,5.22219 9.98848,11.04936 16.25173,6.5039 4.19871,-3.20626 2.8016,-8.41194 7.13259,-11.65866 7.89488,-8.2892 20.96872,-15.79638 19.70541,-27.23383 -1.03477,-6.46211 -4.59601,-12.87434 -1.54336,-19.29726 1.56928,-5.8386 0.84792,-14.79876 -8.39167,-16.22936 -10.70351,-1.11429 -17.70013,7.68013 -19.46239,14.80657 -0.0279,2.26113 -1.90485,1.76794 -3.66474,0.47619 -8.64274,-5.57043 -20.24887,-6.74278 -29.83129,-11.20876 -10.69772,-4.39577 -20.57694,-9.74498 -29.65931,-15.8583 14.33228,-11.04626 34.47718,-15.79715 53.85321,-18.6648 z"
       id="path2996-8"
       inkscape:connector-curvature="0"
       transform="matrix(0.8579996,0,0,0.65979207,36.005864,198.90487)" />
    <path
       style="fill:#2c3c6c;fill-opacity:1;stroke-width:14.19999999999999929;stroke-miterlimit:4;stroke-dasharray:none;stroke:#000000;stroke-opacity:1"
       d="m 172.29089,164.93979 c -60.27382,9.76612 -107.049272,56.64853 -101.337795,104.55192 1.85759,24.8407 17.082174,48.17685 39.892655,65.3169 9.66926,12.85149 7.99267,28.52125 11.22339,42.73736 1.28173,18.75423 -14.5496,35.17315 -14.04472,53.90764 0.37176,19.20468 5.80665,38.67155 19.27671,54.99012 23.62474,29.86454 67.32792,50.07334 113.09578,48.64246 34.42544,0.29886 65.3215,-13.56467 94.15492,-26.47909 29.45397,-10.91373 63.78359,-13.04854 95.47056,-7.08697 29.17512,3.93455 60.81789,4.01395 87.70095,-6.7473 56.25366,-20.24461 87.59325,-74.38237 68.40013,-120.37077 -6.72918,-17.90602 -22.56365,-32.46562 -36.2524,-47.32216 -6.03557,-15.71363 -13.86274,-31.92727 -11.6147,-48.63843 29.33778,-42.52398 10.23761,-101.32775 -42.11066,-127.60997 -44.59352,-24.1107 -109.94342,-23.11327 -152.59723,3.56339 -16.61711,8.91765 -31.76009,20.83444 -37.73297,36.1182 -4.41672,-1.06539 -9.46039,-0.73403 -13.42753,0.99267 -13.5586,-14.97648 -37.24745,-21.73351 -59.28727,-26.07774 -19.91353,-3.45544 -40.7317,-3.51686 -60.80982,-0.48823 z m 8.72122,29.76818 c 30.01831,-4.71346 61.48021,2.81795 85.79447,16.75391 10.17355,8.88892 11.10995,21.34287 16.04461,32.16309 5.45379,17.08552 8.46226,35.42766 9.75141,52.43242 -2.76838,0.45742 -5.70171,1.26463 -8.19935,-0.3417 -22.97753,-9.31462 -40.58364,-24.74929 -58.08934,-39.18169 -3.57263,-3.58753 -2.42725,-8.63964 1.64563,-11.60267 4.09578,-5.02511 28.11903,-28.4098 26.08081,-34.23355 -14.96886,3.78664 -49.91748,28.44185 -64.05337,33.45024 -8.6941,4.30489 -15.61079,11.55106 -15.63812,19.81154 5.16843,1.5148 -0.10678,5.71164 -1.21813,7.99955 -3.72879,5.13154 -40.31326,30.71219 -33.91002,36.01312 6.87448,5.32529 49.2263,-16.80581 54.17711,-21.97719 3.34458,-5.475 12.49454,-3.77613 17.57189,-0.76595 9.11542,4.3799 19.92802,6.57125 29.24967,10.88897 11.00631,4.5348 21.39174,9.87113 30.67689,16.26723 -8.47145,7.87718 -22.91665,7.89343 -34.53992,11.21589 -23.13478,5.06948 -48.77552,8.75174 -71.40276,0.71503 -34.01989,-10.32492 -58.74405,-38.34893 -54.79412,-66.82322 3.03542,-29.81065 32.85067,-57.03541 70.85264,-62.78502 z m 223.50387,-29.80804 c 51.8134,-7.61575 107.41734,26.07214 108.48103,67.29422 1.74052,30.46424 -28.7008,60.51386 -68.22042,64.72709 -20.87105,3.23705 -42.64359,4.45058 -63.5441,1.64592 -1.51658,-0.28998 -3.84321,-1.34425 -1.4151,-2.28537 10.82089,-12.63542 22.15099,-25.55824 38.04098,-34.62345 3.05314,-2.3165 3.9303,-6.98074 8.43795,-7.74705 12.75932,4.95478 20.9689,15.27673 35.19675,18.24173 6.49998,2.39677 21.30682,10.32874 16.67353,5.17853 -11.02279,-16.96336 -27.58644,-44.18837 -38.05487,-61.22669 -2.29809,-2.58964 -6.74438,-1.77304 -10.01768,-2.15055 -9.25431,-4.08161 -42.41637,-32.46917 -53.89647,-33.05417 -9.01578,-0.40732 14.18085,27.28535 17.77346,32.81126 1.96034,4.77847 8.53677,8.62861 6.12467,14.1348 -2.76346,7.77259 -9.68263,14.18951 -12.41711,22.02359 -6.97204,12.65584 -15.61185,25.17985 -28.47347,34.65418 -2.54084,0.12022 -5.67148,3.0222 -5.48232,-0.77466 -7.18391,-18.21712 -12.95512,-36.84852 -14.31737,-55.92784 -0.8561,-8.46984 -2.45249,-17.33652 -0.28909,-25.57464 13.14912,-18.64501 37.94301,-31.31999 63.94758,-37.12363 0.4881,-0.0575 0.96592,-0.15758 1.45205,-0.22323 z M 155.91622,354.42735 c 3.74994,0.53926 3.42101,1.56142 0.2658,3.13655 -2.06154,2.21939 -0.70062,-2.88106 -0.2658,-3.13655 z m 347.78042,-45.87877 c 2.33944,1.59209 -0.33483,1.76155 -0.97602,0.62918 0.23555,-0.0983 0.65996,-0.99527 0.97602,-0.62918 z m -285.85579,59.3267 c 21.39823,-3.28454 43.77924,-3.53547 64.58993,1.82981 -5.14625,8.31981 -13.94893,14.97669 -20.9668,22.25034 -12.85433,5.98155 -18.10129,19.42027 -32.84746,23.15548 -8.16098,-2.22334 -50.03654,-23.7946 -58.58795,-19.58746 -8.03473,4.86081 28.73088,30.56347 35.56298,34.75707 2.81585,2.42481 7.90229,4.21157 6.95209,8.07256 3.59962,10.62502 18.82682,15.99109 32.12714,16.13295 8.72022,1.01117 58.12312,27.39542 67.02481,23.92648 6.9192,-3.15997 -32.82653,-31.25486 -38.29829,-35.53755 -2.91827,-3.25496 -11.0187,-5.56646 -7.90751,-10.44555 3.55456,-9.17572 13.29983,-16.42222 15.04459,-26.07616 7.35764,-7.06672 11.07435,-16.37558 19.19934,-22.85153 1.71282,4.19485 8.04727,8.05822 13.4374,4.95512 2.25155,-0.34838 4.73649,-5.21168 4.90532,-1.48852 5.61402,18.72017 7.47928,37.91849 7.73127,57.04645 0.90525,11.31617 2.11901,22.77955 -0.14661,34.07888 -27.78293,10.58332 -54.45933,26.74837 -86.81652,26.69059 -40.86905,0.69474 -79.83033,-23.21392 -88.50016,-54.23547 -9.16516,-28.37791 7.80398,-60.17025 40.53087,-74.84784 8.21058,-3.78955 17.43975,-6.46621 26.96556,-7.82565 z M 448.1763,336.61285 c 46.59152,-7.61646 96.74948,20.17085 102.70048,56.78103 7.71451,34.59473 -23.28026,72.89544 -68.90036,79.17196 -22.8938,3.56984 -45.89222,-1.28084 -68.7343,-2.05652 -9.73634,0.97704 -16.94881,-6.91409 -18.14018,-13.72311 -9.27241,-21.68857 -17.90401,-43.96835 -21.86652,-66.575 4.3934,0.85679 6.44295,-3.6297 8.09653,-6.01479 1.73857,-3.34921 1.65414,-7.36106 2.8749,-10.5561 6.83845,3.87363 13.66036,7.84122 20.4426,11.85538 13.65344,9.44726 24.49918,21.13289 38.57652,30.149 2.57908,6.30956 -31.12118,42.24494 -27.72411,48.62692 1.41291,5.22219 38.27275,-18.24506 44.536,-22.79052 4.19871,-3.20626 2.8016,-8.41194 7.13259,-11.65866 7.89488,-8.2892 20.96872,-15.79638 19.70541,-27.23383 -1.03477,-6.46211 -4.59601,-12.87434 -1.54336,-19.29726 1.56928,-5.8386 17.01036,-33.99166 7.77077,-35.42226 -10.70351,-1.11429 -33.86257,26.87303 -35.62483,33.99947 -0.0279,2.26113 -1.90485,1.76794 -3.66474,0.47619 -8.64274,-5.57043 -20.24887,-6.74278 -29.83129,-11.20876 -10.69772,-4.39577 -20.57694,-9.74498 -29.65931,-15.8583 14.33228,-11.04626 34.47718,-15.79715 53.85321,-18.6648 z"
       id="path2996"
       inkscape:connector-curvature="0"
       sodipodi:nodetypes="cccccccccccccccccccccccccccccccccccccccccccccccccccccccccccccccccccccccccccccccccccccccccccccccccccccccccccccc" />
  </g>
</svg>
